# xmcd
#
# Track frame offsets:
#	150
#	78449
#	147849
#	158969
#	172227
#	185057
#	195887
#	204794
#
# Disc length: 2861 seconds
#
# Revision: 1
# Processed by: cddbd v1.5.2PL0 Copyright (c) Steve Scherf et al.
# Submitted via: audiograbber 1.83.01
#
DISCID=670b2b08
DTITLE=German_Beer_Drinking_Music - CD 8
DYEAR=1900
DGENRE=
TTITLE0=Die Musik hat Durst 1
TTITLE1=Die Musik hat Durst 2
TTITLE2=Ich kauf' mir lieber einen Tirolerhut
TTITLE3=Biergarten-Polka
TTITLE4=Das Plattler-Echo vom Königsee
TTITLE5=Auf der Alm, da gibt's koa Sünd
TTITLE6=Wildschütz-Jennewein-Rock
TTITLE7=In München steht ein Hofbräuhaus
EXTD=
EXTT0=
EXTT1=
EXTT2=
EXTT3=
EXTT4=
EXTT5=
EXTT6=
EXTT7=
PLAYORDER=
